# xmcd CD database file
#
# Track frame offsets:
#	150
#	19160
#	36145
#	59160
#	80795
#	98975
#	123622
#	147232
#	166570
#	184420
#	206155
#	224737
#	247110
#
# Disc length: 3601 seconds
#
# Revision: 0
# Processed by: cddbd v1.5PL3 Copyright (c) Steve Scherf et al.
# Submitted via: CDex 1.51
#
DISCID=cf0e0f0d
DTITLE=横須賀ゆめな - メビウスの輪
DYEAR=2004
DGENRE=Rock
TTITLE0=WINGS (re-mastering)
TTITLE1=横須賀ストーリー
TTITLE2=メビウスの輪
TTITLE3=FLARE
TTITLE4=あゝ無情
TTITLE5=君の裏側
TTITLE6=ここにいるから (re-mastaring)
TTITLE7=模様
TTITLE8=恋のMy chop!!
TTITLE9=群青色
TTITLE10=絶体絶命
TTITLE11=青空
TTITLE12=大切な痛み
EXTD=YEAR: 2004
EXTT0=
EXTT1=
EXTT2=
EXTT3=
EXTT4=
EXTT5=
EXTT6=
EXTT7=
EXTT8=
EXTT9=
EXTT10=
EXTT11=
EXTT12=
PLAYORDER=
